<?xml version="1.0" encoding="UTF-8" standalone="no"?>
<!-- Created with Inkscape (http://www.inkscape.org/) -->

<svg
   width="8.5in"
   height="11in"
   viewBox="0 0 215.9 279.4"
   version="1.1"
   id="svg5"
   inkscape:version="1.2.1 (9c6d41e4, 2022-07-14)"
   sodipodi:docname="SoccerBallPathOptimized.svg"
   xml:space="preserve"
   xmlns:inkscape="http://www.inkscape.org/namespaces/inkscape"
   xmlns:sodipodi="http://sodipodi.sourceforge.net/DTD/sodipodi-0.dtd"
   xmlns="http://www.w3.org/2000/svg"
   xmlns:svg="http://www.w3.org/2000/svg"><sodipodi:namedview
     id="namedview7"
     pagecolor="#40311c"
     bordercolor="#000000"
     borderopacity="0.25"
     inkscape:showpageshadow="2"
     inkscape:pageopacity="0"
     inkscape:pagecheckerboard="0"
     inkscape:deskcolor="#d1d1d1"
     inkscape:document-units="mm"
     showgrid="false"
     inkscape:zoom="1.3879489"
     inkscape:cx="382.57893"
     inkscape:cy="321.69772"
     inkscape:window-width="1920"
     inkscape:window-height="981"
     inkscape:window-x="0"
     inkscape:window-y="23"
     inkscape:window-maximized="0"
     inkscape:current-layer="layer1" /><defs
     id="defs2" /><g
     inkscape:label="Layer 1"
     inkscape:groupmode="layer"
     id="layer1"><circle
       style="font-variation-settings:'wght' 800;display:none;fill:#000000;fill-opacity:1;stroke:#080000;stroke-width:0.370456;stroke-linecap:round;stroke-linejoin:round;stroke-dasharray:none;stroke-opacity:1;stop-color:#000000"
       id="path351"
       cx="85.211174"
       cy="85.401802"
       r="44.679966" /><path
       id="path326"
       style="color:#000000;display:inline;fill:#ffffff;fill-opacity:0.980392;stroke-width:3.52778;stroke-linecap:round;stroke-linejoin:round;-inkscape-stroke:none"
       d="m 91.067827,72.685486 -14.181564,0.103353 -7.002156,12.336198 7.18199,12.230261 14.183631,-0.103353 7.001639,-12.335681 z"
       inkscape:label="x1" /><path
       id="path350"
       style="color:#000000;fill:#ffffff;fill-opacity:0.980392;stroke-width:3.52778;stroke-linecap:round;stroke-linejoin:round;-inkscape-stroke:none"
       d="m 90.806344,50.497693 -13.924215,0.07958 -6.873482,9.45162 7.049182,9.370487 13.926281,-0.07958 6.873487,-9.451103 z"
       inkscape:label="x2" /><path
       id="path320"
       style="color:#000000;display:inline;fill:#ffffff;fill-opacity:0.980392;stroke-width:3.52778;stroke-linecap:round;stroke-linejoin:round;-inkscape-stroke:none"
       d="m 112.78071,85.526562 -11.65303,1.30483 -7.013528,12.031308 4.643126,10.72441 11.654072,-1.30638 7.01249,-12.029758 z"
       inkscape:label="x3" /><path
       id="path332"
       style="color:#000000;fill:#ffffff;fill-opacity:0.980392;stroke-width:3.52778;stroke-linecap:round;stroke-linejoin:round;-inkscape-stroke:none"
       d="M 55.353727,85.661437 50.7106,96.385848 57.723092,108.4156 69.377158,109.72198 74.020288,98.997575 67.007279,86.966268 Z"
       inkscape:label="x4" /><path
       id="path314"
       style="color:#000000;fill:#ffffff;fill-opacity:0.980392;stroke-width:3.52778;stroke-linecap:round;stroke-linejoin:round;-inkscape-stroke:none"
       inkscape:label="x5"
       d="m 59.327645,112.05466 0.0021,7.70909 c 6.419456,4.58227 14.1607,7.43379 22.54436,7.87497 l -5.16e-4,-5.36918 -11.274248,-9.09144 z"
       sodipodi:nodetypes="cccccc" /><path
       id="path308"
       style="color:#000000;fill:#ffffff;fill-opacity:0.980392;stroke-width:3.52778;stroke-linecap:round;stroke-linejoin:round;-inkscape-stroke:none"
       inkscape:label="x6"
       d="m 108.59285,112.07171 -11.024645,1.1219 -11.027751,9.07335 -5.17e-4,5.36659 c 8.094624,-0.44286 15.587353,-3.13286 21.865853,-7.45742 l 0.18448,-0.15141 z"
       sodipodi:nodetypes="ccccccc" /><path
       id="path344"
       style="color:#000000;fill:#ffffff;fill-opacity:0.979661;stroke-width:3.52778;stroke-linecap:round;stroke-linejoin:round;-inkscape-stroke:none"
       inkscape:label="x7"
       d="M 65.843526,46.258675 C 58.507431,49.737719 52.321374,55.24202 48.006372,62.05151 l 4.367692,2.482019 13.475147,-5.30872 6.546887,-9.24388 z"
       sodipodi:nodetypes="cccccc" /><path
       id="path338"
       style="color:#000000;fill:#ffffff;fill-opacity:0.980392;stroke-width:3.52778;stroke-linecap:round;stroke-linejoin:round;-inkscape-stroke:none"
       inkscape:label="x8"
       d="m 45.727958,66.123612 c -2.778876,5.673822 -4.33927,12.054297 -4.33927,18.801954 0,1.42122 0.06995,2.826118 0.205156,4.211629 l 6.441984,3.664376 4.473112,-10.1384 -2.439128,-14.070975 z"
       sodipodi:nodetypes="csccccc" /><path
       id="path356"
       style="color:#000000;fill:#ffffff;fill-opacity:0.980392;stroke-width:3.52778;stroke-linecap:round;stroke-linejoin:round;-inkscape-stroke:none"
       inkscape:label="x9"
       d="m 101.82996,45.956368 -6.729305,3.905705 6.632155,9.182902 13.52372,5.183663 4.70411,-2.7311 c -4.42615,-6.752603 -10.71124,-12.1747 -18.13068,-15.54117 z"
       sodipodi:nodetypes="cccccc" /><path
       id="path362"
       style="color:#000000;fill:#ffffff;fill-opacity:0.980392;stroke-width:3.52778;stroke-linecap:round;stroke-linejoin:round;-inkscape-stroke:none"
       inkscape:label="x10"
       d="m 122.3021,65.533468 -4.70411,2.732133 -2.30839,14.093196 4.56665,10.096542 6.87607,-3.995622 0.10697,-0.654224 c 0.0632,-0.951729 0.0961,-1.912109 0.0961,-2.879927 0,-6.982588 -1.67026,-13.572121 -4.6333,-19.392098 z"
       sodipodi:nodetypes="ccccccsc" /><path
       id="rect1491"
       style="font-variation-settings:'wght' 800;display:none;fill:#000006;fill-opacity:1;stroke:none;stroke-width:3.52777;stroke-linecap:round;stroke-linejoin:round;stroke-dasharray:none;stroke-opacity:1;stop-color:#000000"
       d="M 24.019206,27.641207 V 143.35301 H 144.49661 V 27.641207 Z M 84.162821,41.070361 A 43.854713,43.854713 0 0 1 128.01751,84.925049 43.854713,43.854713 0 0 1 84.162821,128.77974 43.854713,43.854713 0 0 1 40.308134,84.925049 43.854713,43.854713 0 0 1 84.162821,41.070361 Z" /><path
       style="color:#000000;display:none;fill:#fffffc;fill-opacity:0;stroke-width:3.46262;stroke-linecap:round;stroke-linejoin:round;-inkscape-stroke:none"
       d="M 128.01743,84.925224 A 43.854713,43.854713 0 0 1 84.162712,128.77994 43.854713,43.854713 0 0 1 40.307999,84.925224 43.854713,43.854713 0 0 1 84.162712,41.070511 43.854713,43.854713 0 0 1 128.01743,84.925224 Z"
       id="path388" /><path
       style="color:#000000;display:inline;fill:#ff2bff;fill-opacity:1;stroke-linecap:round;stroke-linejoin:round;-inkscape-stroke:none"
       d="m 84.162109,39.339844 c -25.155933,0 -45.585937,20.430004 -45.585937,45.585937 0,25.155929 20.430004,45.585939 45.585937,45.585939 25.155931,0 45.585941,-20.43001 45.585941,-45.585939 0,-25.155933 -20.43001,-45.585937 -45.585941,-45.585937 z m 0,3.46289 c 23.284601,0 42.123051,18.83845 42.123051,42.123047 0,23.284599 -18.83845,42.123049 -42.123051,42.123049 -23.284596,0 -42.123046,-18.83845 -42.123047,-42.123049 0,-23.284597 18.838451,-42.123047 42.123047,-42.123047 z"
       id="path390" /><path
       style="color:#000000;display:none;fill:#ff4afc;stroke-linecap:round;stroke-linejoin:round;-inkscape-stroke:none"
       d="m 84.162109,39.988281 c -24.80475,0 -44.935546,20.13275 -44.935547,44.9375 -1e-6,24.804749 20.130796,44.935549 44.935547,44.935549 24.804751,0 44.937501,-20.1308 44.937501,-44.935549 0,-24.804752 -20.13275,-44.937503 -44.937501,-44.9375 z m 0,2.164063 c 23.635781,-3e-6 42.773441,19.137656 42.773441,42.773437 0,23.635779 -19.13766,42.773439 -42.773441,42.773439 -23.63578,0 -42.773439,-19.13766 -42.773437,-42.773439 0,-23.635779 19.137658,-42.773437 42.773437,-42.773437 z"
       id="path1680"
       inkscape:label="cutter" /><path
       style="color:#000000;display:none;fill:#ff4afc;stroke-linecap:round;stroke-linejoin:round;-inkscape-stroke:none"
       d="m 84.162109,39.988281 c -24.80475,0 -44.935546,20.13275 -44.935547,44.9375 -1e-6,24.804749 20.130796,44.935549 44.935547,44.935549 24.804751,0 44.937501,-20.1308 44.937501,-44.935549 0,-24.804752 -20.13275,-44.937503 -44.937501,-44.9375 z m 0,2.164063 c 23.635781,-3e-6 42.773441,19.137656 42.773441,42.773437 0,23.635779 -19.13766,42.773439 -42.773441,42.773439 -23.63578,0 -42.773439,-19.13766 -42.773437,-42.773439 0,-23.635779 19.137658,-42.773437 42.773437,-42.773437 z"
       id="path1702"
       inkscape:label="cutter" /><path
       style="color:#000000;display:none;fill:#ff4afc;stroke-linecap:round;stroke-linejoin:round;-inkscape-stroke:none"
       d="m 84.162109,39.988281 c -24.80475,0 -44.935546,20.13275 -44.935547,44.9375 -1e-6,24.804749 20.130796,44.935549 44.935547,44.935549 24.804751,0 44.937501,-20.1308 44.937501,-44.935549 0,-24.804752 -20.13275,-44.937503 -44.937501,-44.9375 z m 0,2.164063 c 23.635781,-3e-6 42.773441,19.137656 42.773441,42.773437 0,23.635779 -19.13766,42.773439 -42.773441,42.773439 -23.63578,0 -42.773439,-19.13766 -42.773437,-42.773439 0,-23.635779 19.137658,-42.773437 42.773437,-42.773437 z"
       id="path1704"
       inkscape:label="cutter" /><path
       style="color:#000000;display:none;fill:#ff4afc;stroke-linecap:round;stroke-linejoin:round;-inkscape-stroke:none"
       d="m 84.162109,39.988281 c -24.80475,0 -44.935546,20.13275 -44.935547,44.9375 -1e-6,24.804749 20.130796,44.935549 44.935547,44.935549 24.804751,0 44.937501,-20.1308 44.937501,-44.935549 0,-24.804752 -20.13275,-44.937503 -44.937501,-44.9375 z m 0,2.164063 c 23.635781,-3e-6 42.773441,19.137656 42.773441,42.773437 0,23.635779 -19.13766,42.773439 -42.773441,42.773439 -23.63578,0 -42.773439,-19.13766 -42.773437,-42.773439 0,-23.635779 19.137658,-42.773437 42.773437,-42.773437 z"
       id="path1706"
       inkscape:label="cutter" /><path
       style="color:#000000;display:none;fill:#ff4afc;stroke-linecap:round;stroke-linejoin:round;-inkscape-stroke:none"
       d="m 84.162109,39.988281 c -24.80475,0 -44.935546,20.13275 -44.935547,44.9375 -1e-6,24.804749 20.130796,44.935549 44.935547,44.935549 24.804751,0 44.937501,-20.1308 44.937501,-44.935549 0,-24.804752 -20.13275,-44.937503 -44.937501,-44.9375 z m 0,2.164063 c 23.635781,-3e-6 42.773441,19.137656 42.773441,42.773437 0,23.635779 -19.13766,42.773439 -42.773441,42.773439 -23.63578,0 -42.773439,-19.13766 -42.773437,-42.773439 0,-23.635779 19.137658,-42.773437 42.773437,-42.773437 z"
       id="path1708"
       inkscape:label="cutter" /><path
       style="color:#000000;display:none;fill:#ff4afc;stroke-linecap:round;stroke-linejoin:round;-inkscape-stroke:none"
       d="m 84.162109,39.988281 c -24.80475,0 -44.935546,20.13275 -44.935547,44.9375 -1e-6,24.804749 20.130796,44.935549 44.935547,44.935549 24.804751,0 44.937501,-20.1308 44.937501,-44.935549 0,-24.804752 -20.13275,-44.937503 -44.937501,-44.9375 z m 0,2.164063 c 23.635781,-3e-6 42.773441,19.137656 42.773441,42.773437 0,23.635779 -19.13766,42.773439 -42.773441,42.773439 -23.63578,0 -42.773439,-19.13766 -42.773437,-42.773439 0,-23.635779 19.137658,-42.773437 42.773437,-42.773437 z"
       id="path1710"
       inkscape:label="cutter" /></g></svg>
