<?xml version="1.0" encoding="UTF-8" standalone="no"?>
<!-- Created with Inkscape (http://www.inkscape.org/) -->

<svg
   width="20cm"
   height="20cm"
   viewBox="0 0 200 200"
   version="1.1"
   id="svg5"
   inkscape:version="1.2.1 (9c6d41e4, 2022-07-14)"
   sodipodi:docname="SoccerBallPathOptimized_Merged.svg"
   xml:space="preserve"
   xmlns:inkscape="http://www.inkscape.org/namespaces/inkscape"
   xmlns:sodipodi="http://sodipodi.sourceforge.net/DTD/sodipodi-0.dtd"
   xmlns="http://www.w3.org/2000/svg"
   xmlns:svg="http://www.w3.org/2000/svg"><sodipodi:namedview
     id="namedview7"
     pagecolor="#40311c"
     bordercolor="#000000"
     borderopacity="0.25"
     inkscape:showpageshadow="2"
     inkscape:pageopacity="0"
     inkscape:pagecheckerboard="0"
     inkscape:deskcolor="#d1d1d1"
     inkscape:document-units="mm"
     showgrid="false"
     inkscape:zoom="0.49071404"
     inkscape:cx="383.11518"
     inkscape:cy="435.08028"
     inkscape:window-width="1920"
     inkscape:window-height="981"
     inkscape:window-x="0"
     inkscape:window-y="23"
     inkscape:window-maximized="0"
     inkscape:current-layer="layer1" /><defs
     id="defs2" /><g
     inkscape:label="Layer 1"
     inkscape:groupmode="layer"
     id="layer1"><g
       id="g1919"
       inkscape:label="SoccerBall"
       transform="matrix(1.88708,0,0,1.88708,-59.561417,-61.317309)"><path
         id="path326"
         style="color:#000000;display:inline;fill:#ffffff;fill-opacity:0.980392;stroke-width:3.52778;stroke-linecap:round;stroke-linejoin:round;-inkscape-stroke:none"
         d="m 91.067827,72.685486 -14.181564,0.103353 -7.002156,12.336198 7.18199,12.230261 14.183631,-0.103353 7.001639,-12.335681 z"
         inkscape:label="x1" /><path
         id="path350"
         style="color:#000000;fill:#ffffff;fill-opacity:0.980392;stroke-width:3.52778;stroke-linecap:round;stroke-linejoin:round;-inkscape-stroke:none"
         d="m 90.806344,50.497693 -13.924215,0.07958 -6.873482,9.45162 7.049182,9.370487 13.926281,-0.07958 6.873487,-9.451103 z"
         inkscape:label="x2" /><path
         id="path320"
         style="color:#000000;display:inline;fill:#ffffff;fill-opacity:0.980392;stroke-width:3.52778;stroke-linecap:round;stroke-linejoin:round;-inkscape-stroke:none"
         d="m 112.78071,85.526562 -11.65303,1.30483 -7.013528,12.031308 4.643126,10.72441 11.654072,-1.30638 7.01249,-12.029758 z"
         inkscape:label="x3" /><path
         id="path332"
         style="color:#000000;fill:#ffffff;fill-opacity:0.980392;stroke-width:3.52778;stroke-linecap:round;stroke-linejoin:round;-inkscape-stroke:none"
         d="M 55.353727,85.661437 50.7106,96.385848 57.723092,108.4156 69.377158,109.72198 74.020288,98.997575 67.007279,86.966268 Z"
         inkscape:label="x4" /><path
         id="path314"
         style="color:#000000;fill:#ffffff;fill-opacity:0.980392;stroke-width:3.52778;stroke-linecap:round;stroke-linejoin:round;-inkscape-stroke:none"
         inkscape:label="outline"
         d="m 84.162305,39.339718 c -25.155783,0 -45.586365,20.430065 -45.586365,45.585848 0,25.155754 20.430582,45.586364 45.586365,45.586364 25.155755,0 45.585845,-20.43061 45.585845,-45.586364 0,-25.155783 -20.43009,-45.585848 -45.585845,-45.585848 z m 0,3.462837 c 6.041758,0 11.78254,1.271121 16.974155,3.556372 l -6.035805,3.503146 6.632155,9.182902 13.52372,5.183663 4.14187,-2.404505 c 0.85166,1.297344 1.63081,2.6461 2.33784,4.037997 l -4.13825,2.403471 -2.30839,14.093196 4.56665,10.096542 6.24871,-3.630787 c -1.14955,12.554898 -7.79651,23.504378 -17.51469,30.429148 l 0.003,-7.18199 -11.024645,1.1219 -11.027751,9.07335 -5.17e-4,4.7134 c -0.787191,0.0437 -1.579404,0.0682 -2.377632,0.0682 -0.767896,0 -1.530524,-0.0221 -2.288233,-0.0625 l -5.16e-4,-4.71651 -11.274248,-9.09144 -11.271663,-1.12344 0.0021,6.90759 c -9.31723,-6.80517 -15.72464,-17.34492 -17.037139,-29.427673 l 5.742802,3.266984 4.473112,-10.1384 -2.439128,-14.070975 -3.776514,-2.147156 c 0.685298,-1.403315 1.449669,-2.760268 2.280998,-4.070553 l 3.799768,2.159042 13.475147,-5.30872 6.546887,-9.24388 -5.860108,-3.328996 c 5.360939,-2.470208 11.330487,-3.849378 17.626315,-3.849378 z" /></g></g></svg>
