<?xml version="1.0" encoding="UTF-8" standalone="no"?>
<!-- Created with Inkscape (http://www.inkscape.org/) -->

<svg
   width="8.5in"
   height="11in"
   viewBox="0 0 215.9 279.4"
   version="1.1"
   id="svg5"
   inkscape:version="1.2.1 (9c6d41e4, 2022-07-14)"
   sodipodi:docname="SoccerBallPathOptimized.svg"
   xml:space="preserve"
   xmlns:inkscape="http://www.inkscape.org/namespaces/inkscape"
   xmlns:sodipodi="http://sodipodi.sourceforge.net/DTD/sodipodi-0.dtd"
   xmlns="http://www.w3.org/2000/svg"
   xmlns:svg="http://www.w3.org/2000/svg"><sodipodi:namedview
     id="namedview7"
     pagecolor="#ffffff"
     bordercolor="#000000"
     borderopacity="0.25"
     inkscape:showpageshadow="2"
     inkscape:pageopacity="0.0"
     inkscape:pagecheckerboard="0"
     inkscape:deskcolor="#d1d1d1"
     inkscape:document-units="mm"
     showgrid="false"
     inkscape:zoom="1.3879489"
     inkscape:cx="225.51263"
     inkscape:cy="321.33748"
     inkscape:window-width="1920"
     inkscape:window-height="1080"
     inkscape:window-x="0"
     inkscape:window-y="0"
     inkscape:window-maximized="0"
     inkscape:current-layer="layer1" /><defs
     id="defs2" /><g
     inkscape:label="Layer 1"
     inkscape:groupmode="layer"
     id="layer1"><circle
       style="font-variation-settings:'wght' 800;fill:#000000;fill-opacity:1;stroke:#080000;stroke-width:0.370456;stroke-linecap:round;stroke-linejoin:round;stroke-dasharray:none;stroke-opacity:1;stop-color:#000000"
       id="path351"
       cx="85.211174"
       cy="85.401802"
       r="44.679966" /><path
       sodipodi:type="star"
       style="font-variation-settings:'wght' 800;fill:#ffffff;fill-opacity:0.98039216;stroke:#080000;stroke-width:3.52777778;stroke-linecap:round;stroke-linejoin:round;stop-color:#000000;stroke-opacity:1;stroke-dasharray:none"
       id="path965"
       inkscape:flatsided="true"
       sodipodi:sides="6"
       sodipodi:cx="87.308083"
       sodipodi:cy="85.020538"
       sodipodi:r1="16.220278"
       sodipodi:r2="15.377275"
       sodipodi:arg1="2.087027"
       sodipodi:arg2="2.6106258"
       inkscape:rounded="-3.469447e-18"
       inkscape:randomized="0"
       d="M 79.301664,99.127085 71.088245,85.14005 79.094664,71.033503 95.314501,70.913991 103.52792,84.901027 95.521501,99.007574 Z"
       inkscape:transform-center-x="1.0999444e-06"
       inkscape:transform-center-y="-1.0711249e-06"
       transform="translate(-3.2406932)" /><path
       sodipodi:type="star"
       style="font-variation-settings:'wght' 800;fill:#ffffff;fill-opacity:0.98039216;stroke:#080000;stroke-width:3.99097794;stroke-linecap:round;stroke-linejoin:round;stop-color:#000000;stroke-opacity:1;stroke-dasharray:none"
       id="path971"
       inkscape:flatsided="true"
       sodipodi:sides="6"
       sodipodi:cx="87.308083"
       sodipodi:cy="85.020538"
       sodipodi:r1="16.220278"
       sodipodi:r2="15.377275"
       sodipodi:arg1="2.087027"
       sodipodi:arg2="2.6106258"
       inkscape:rounded="-3.469447e-18"
       inkscape:randomized="0"
       d="M 79.301664,99.127085 71.088245,85.14005 79.094664,71.033503 95.314501,70.913991 103.52792,84.901027 95.521501,99.007574 Z"
       transform="matrix(1.0005903,0,0,0.78088575,-3.4270256,-6.4426714)" /><path
       sodipodi:type="star"
       style="font-variation-settings:'wght' 800;fill:#ffffff;fill-opacity:0.98039216;stroke:#080000;stroke-width:3.99097792;stroke-linecap:round;stroke-linejoin:round;stop-color:#000000;stroke-opacity:1;stroke-dasharray:none"
       id="path973"
       inkscape:flatsided="true"
       sodipodi:sides="6"
       sodipodi:cx="87.308083"
       sodipodi:cy="85.020538"
       sodipodi:r1="16.220278"
       sodipodi:r2="15.377275"
       sodipodi:arg1="2.087027"
       sodipodi:arg2="2.6106258"
       inkscape:rounded="-3.469447e-18"
       inkscape:randomized="0"
       d="M 79.301664,99.127085 71.088245,85.14005 79.094664,71.033503 95.314501,70.913991 103.52792,84.901027 95.521501,99.007574 Z"
       transform="matrix(-0.5088147,0.8615617,-0.67238434,-0.39709175,207.35951,56.096133)" /><path
       sodipodi:type="star"
       style="font-variation-settings:'wght' 800;fill:#ffffff;fill-opacity:0.98039216;stroke:#080000;stroke-width:3.99097792;stroke-linecap:round;stroke-linejoin:round;stop-color:#000000;stroke-opacity:1;stroke-dasharray:none"
       id="path975"
       inkscape:flatsided="true"
       sodipodi:sides="6"
       sodipodi:cx="87.308083"
       sodipodi:cy="85.020538"
       sodipodi:r1="16.220278"
       sodipodi:r2="15.377275"
       sodipodi:arg1="2.087027"
       sodipodi:arg2="2.6106258"
       inkscape:rounded="-3.469447e-18"
       inkscape:randomized="0"
       d="M 79.301664,99.127085 71.088245,85.14005 79.094664,71.033503 95.314501,70.913991 103.52792,84.901027 95.521501,99.007574 Z"
       transform="matrix(0.5088147,0.8615617,0.67238434,-0.39709175,-39.224732,56.230928)" /><path
       sodipodi:type="star"
       style="font-variation-settings:'wght' 800;fill:#ffffff;fill-opacity:0.98039216;stroke:#080000;stroke-width:4.68272582;stroke-linecap:round;stroke-linejoin:round;stop-color:#000000;stroke-opacity:1;stroke-dasharray:none"
       id="path979"
       inkscape:flatsided="true"
       sodipodi:sides="6"
       sodipodi:cx="87.308083"
       sodipodi:cy="85.020538"
       sodipodi:r1="16.220278"
       sodipodi:r2="15.377275"
       sodipodi:arg1="2.087027"
       sodipodi:arg2="2.6106258"
       inkscape:rounded="-3.469447e-18"
       inkscape:randomized="0"
       d="M 79.301664,99.127085 71.088245,85.14005 79.094664,71.033503 95.314501,70.913991 103.52792,84.901027 95.521501,99.007574 Z"
       transform="matrix(0.83043863,0.67469658,-0.48750629,0.28735692,39.545854,37.807909)" /><path
       sodipodi:type="star"
       style="font-variation-settings:'wght' 800;fill:#ffffff;fill-opacity:0.98039216;stroke:#080000;stroke-width:4.72981829;stroke-linecap:round;stroke-linejoin:round;stop-color:#000000;stroke-opacity:1;stroke-dasharray:none"
       id="path981"
       inkscape:flatsided="true"
       sodipodi:sides="6"
       sodipodi:cx="87.308083"
       sodipodi:cy="85.020538"
       sodipodi:r1="16.220278"
       sodipodi:r2="15.377275"
       sodipodi:arg1="2.087027"
       sodipodi:arg2="2.6106258"
       inkscape:rounded="-3.469447e-18"
       inkscape:randomized="0"
       d="M 79.301664,99.127085 71.088245,85.14005 79.094664,71.033503 95.314501,70.913991 103.52792,84.901027 95.521501,99.007574 Z"
       transform="matrix(-0.81393647,0.67473632,0.47781875,0.28737385,128.00478,37.802999)" /><path
       sodipodi:type="star"
       style="font-variation-settings:'wght' 800;fill:#ffffff;fill-opacity:0.97966093;stroke:#080000;stroke-width:4.68272589;stroke-linecap:round;stroke-linejoin:round;stop-color:#000000;stroke-opacity:1;stroke-dasharray:none"
       id="path991"
       inkscape:flatsided="true"
       sodipodi:sides="6"
       sodipodi:cx="87.308083"
       sodipodi:cy="85.020538"
       sodipodi:r1="16.220278"
       sodipodi:r2="15.377275"
       sodipodi:arg1="2.087027"
       sodipodi:arg2="2.6106258"
       inkscape:rounded="-3.469447e-18"
       inkscape:randomized="0"
       d="M 79.301664,99.127085 71.088245,85.14005 79.094664,71.033503 95.314501,70.913991 103.52792,84.901027 95.521501,99.007574 Z"
       transform="matrix(-0.99693306,0.38854627,-0.00891087,-0.56582416,146.71922,69.473053)" /><path
       sodipodi:type="star"
       style="font-variation-settings:'wght' 800;fill:#ffffff;fill-opacity:0.98039216;stroke:#080000;stroke-width:4.72981817;stroke-linecap:round;stroke-linejoin:round;stop-color:#000000;stroke-opacity:1;stroke-dasharray:none"
       id="path993"
       inkscape:flatsided="true"
       sodipodi:sides="6"
       sodipodi:cx="87.308083"
       sodipodi:cy="85.020538"
       sodipodi:r1="16.220278"
       sodipodi:r2="15.377275"
       sodipodi:arg1="2.087027"
       sodipodi:arg2="2.6106258"
       inkscape:rounded="-3.469447e-18"
       inkscape:randomized="0"
       d="M 79.301664,99.127085 71.088245,85.14005 79.094664,71.033503 95.314501,70.913991 103.52792,84.901027 95.521501,99.007574 Z"
       transform="matrix(-0.1843762,-1.0410414,-0.48595475,0.27339069,103.01025,146.37889)" /><path
       sodipodi:type="star"
       style="font-variation-settings:'wght' 800;fill:#ffffff;fill-opacity:0.98039216;stroke:#080000;stroke-width:4.68272592;stroke-linecap:round;stroke-linejoin:round;stop-color:#000000;stroke-opacity:1;stroke-dasharray:none"
       id="path995"
       inkscape:flatsided="true"
       sodipodi:sides="6"
       sodipodi:cx="87.308083"
       sodipodi:cy="85.020538"
       sodipodi:r1="16.220278"
       sodipodi:r2="15.377275"
       sodipodi:arg1="2.087027"
       sodipodi:arg2="2.6106258"
       inkscape:rounded="-3.469447e-18"
       inkscape:randomized="0"
       d="M 79.301664,99.127085 71.088245,85.14005 79.094664,71.033503 95.314501,70.913991 103.52792,84.901027 95.521501,99.007574 Z"
       transform="matrix(1.000489,0.37929601,0.00366983,-0.56588242,20.961171,70.041803)" /><path
       sodipodi:type="star"
       style="font-variation-settings:'wght' 800;fill:#ffffff;fill-opacity:0.98039216;stroke:#080000;stroke-width:4.72981825;stroke-linecap:round;stroke-linejoin:round;stop-color:#000000;stroke-opacity:1;stroke-dasharray:none"
       id="path997"
       inkscape:flatsided="true"
       sodipodi:sides="6"
       sodipodi:cx="87.308083"
       sodipodi:cy="85.020538"
       sodipodi:r1="16.220278"
       sodipodi:r2="15.377275"
       sodipodi:arg1="2.087027"
       sodipodi:arg2="2.6106258"
       inkscape:rounded="-3.469447e-18"
       inkscape:randomized="0"
       d="M 79.301664,99.127085 71.088245,85.14005 79.094664,71.033503 95.314501,70.913991 103.52792,84.901027 95.521501,99.007574 Z"
       transform="matrix(0.17472617,-1.0427044,0.48846605,0.26887805,65.380567,146.53951)" /><path
       style="font-variation-settings:'wght' 800;fill:#ffffff;fill-opacity:0.98644066;stroke:#fffffc;stroke-width:3.52777;stroke-linecap:round;stroke-linejoin:round;stroke-dasharray:none;stroke-opacity:1;stop-color:#000000"
       d="m 36.60077,100.84275 3.812579,-10.67523 0.19063,-17.537867 9.340821,-15.63158 18.300385,-13.53466 13.153403,-4.765725 -29.35687,-0.381257 c 0,0 -24.209883,28.022463 -23.828626,29.928754 0.381259,1.906291 8.387678,32.597565 8.387678,32.597565 z"
       id="path1055" /><g
       id="path1435"><path
         style="color:#000000;fill:#ffffff;fill-opacity:0.986441;stroke-width:3.52777;stroke-linecap:round;stroke-linejoin:round;-inkscape-stroke:none"
         d="m 102.55841,40.22272 2.09691,5.718871 12.77215,9.912709 7.43453,13.34403 3.62195,14.487806 -0.95314,8.578305 -4.76573,14.869059 -11.24711,12.58152 -12.009627,6.67201 -12.200257,2.47818 -13.34403,-0.95315 -12.772144,-5.14698 -7.243903,-3.81258 6.290757,11.43774 28.784981,8.00642 c 0,0 14.106543,-2.85944 16.203463,-3.05006 2.09692,-0.19063 29.5475,-31.26316 29.5475,-31.26316 0,0 3.24069,-27.450577 3.62195,-28.403723 0.38126,-0.953145 -14.86906,-35.075738 -14.86906,-35.075738 z"
         id="path5031" /><path
         style="color:#000000;fill:#fffffc;stroke-linecap:round;stroke-linejoin:round;-inkscape-stroke:none"
         d="m 102.58984,38.458984 a 1.7640614,1.7640614 0 0 0 -1.6875,2.371094 L 103,46.548828 a 1.7640614,1.7640614 0 0 0 0.57422,0.787109 l 12.48828,9.691407 7.14453,12.826172 3.48828,13.953125 -0.89843,8.08789 -4.59766,14.343749 -10.79883,12.08008 -11.509765,6.39453 -11.697266,2.375 -12.826172,-0.91601 -12.433593,-5.00977 -7.164063,-3.76953 a 1.7640614,1.7640614 0 0 0 -2.367187,2.41015 l 6.291015,11.4375 a 1.7640614,1.7640614 0 0 0 1.072266,0.84961 l 28.785156,8.00586 A 1.7640614,1.7640614 0 0 0 89.375,140.125 c 0,0 3.520039,-0.71405 7.300781,-1.45117 1.890371,-0.36856 3.846249,-0.74255 5.451169,-1.03516 1.60493,-0.29261 2.95393,-0.50735 3.25977,-0.53515 0.56018,-0.0509 0.76387,-0.20715 0.98047,-0.33008 0.2166,-0.12294 0.40098,-0.25235 0.59765,-0.40039 0.39335,-0.2961 0.82316,-0.66574 1.32227,-1.1211 0.99823,-0.91071 2.25612,-2.1556 3.70312,-3.63867 2.89401,-2.96613 6.53057,-6.87603 10.09961,-10.7793 7.13809,-7.80653 14.00586,-15.58203 14.00586,-15.58203 a 1.7640614,1.7640614 0 0 0 0.43164,-0.96093 c 0,0 0.80886,-6.859599 1.66602,-13.835942 0.42858,-3.488171 0.86852,-7.007687 1.22461,-9.705078 0.17804,-1.348695 0.33652,-2.492301 0.45898,-3.316406 0.0612,-0.412053 0.11255,-0.744977 0.15235,-0.970703 0.0398,-0.225727 0.1731,-0.547006 0.006,-0.128907 0.36864,-0.921593 0.12128,-0.974695 0.084,-1.169922 -0.0373,-0.195226 -0.0813,-0.358414 -0.13672,-0.542968 -0.11082,-0.369109 -0.26362,-0.804794 -0.46094,-1.335938 -0.39464,-1.062288 -0.96402,-2.485478 -1.65625,-4.162109 -1.38445,-3.353263 -3.25784,-7.712863 -5.14257,-12.042969 -3.76946,-8.660212 -7.58399,-17.195312 -7.58399,-17.195312 a 1.7640614,1.7640614 0 0 0 -1.57812,-1.044922 z m 2.51172,3.574219 17.26758,0.314453 c 0.41435,0.927863 3.58296,8.016367 7.11914,16.140625 1.88019,4.319677 3.74749,8.669634 5.11524,11.982422 0.68387,1.656394 1.24299,3.056742 1.60937,4.042969 0.18319,0.493113 0.31994,0.887598 0.39063,1.123047 0.002,0.0071 -6e-5,0.0049 0.002,0.01172 -0.004,0.04757 -0.0367,0.132623 -0.0488,0.201172 -0.0496,0.281097 -0.10605,0.634686 -0.16992,1.064453 -0.12773,0.859535 -0.28546,2.016171 -0.46485,3.375 -0.35876,2.71766 -0.80122,6.240766 -1.23046,9.734375 -0.82389,6.705535 -1.54004,12.774203 -1.60157,13.294923 -0.34221,0.38718 -6.67661,7.55919 -13.60351,15.13477 -3.55571,3.88868 -7.1768,7.78368 -10.01953,10.69726 -1.42137,1.45679 -2.65231,2.66909 -3.55664,3.49414 -0.45217,0.41253 -0.82727,0.73014 -1.06641,0.91016 -0.0729,0.0549 -0.0938,0.068 -0.13281,0.0937 -0.75055,0.0865 -1.75003,0.25211 -3.2168,0.51953 -1.629806,0.29715 -3.593811,0.67284 -5.492187,1.04297 -3.580112,0.69801 -6.54017,1.29814 -6.910156,1.37304 l -27.666016,-7.69336 -3.101562,-5.64257 2.046875,1.07812 a 1.7640614,1.7640614 0 0 0 0.162109,0.0742 l 12.771484,5.14844 a 1.7640614,1.7640614 0 0 0 0.533204,0.12304 l 13.34375,0.95313 a 1.7640614,1.7640614 0 0 0 0.478515,-0.0312 l 12.199219,-2.47852 a 1.7640614,1.7640614 0 0 0 0.505855,-0.18554 l 12.00977,-6.67188 a 1.7640614,1.7640614 0 0 0 0.45898,-0.36718 l 11.2461,-12.58204 a 1.7640614,1.7640614 0 0 0 0.36523,-0.63671 l 4.76563,-14.869146 a 1.7640614,1.7640614 0 0 0 0.0723,-0.34375 l 0.95313,-8.578125 a 1.7640614,1.7640614 0 0 0 -0.041,-0.623047 l -3.62304,-14.486328 a 1.7640614,1.7640614 0 0 0 -0.16993,-0.43164 l -7.43359,-13.34375 a 1.7640614,1.7640614 0 0 0 -0.45898,-0.535157 l -12.37305,-9.601562 z"
         id="path5033" /></g><path
       id="path5027"
       style="font-variation-settings:'wght' 800;fill:#000006;fill-opacity:1;stroke:none;stroke-width:3.52777;stroke-linecap:round;stroke-linejoin:round;stroke-dasharray:none;stroke-opacity:1;stop-color:#000000"
       d="M 24.019206 27.641207 L 24.019206 143.35301 L 144.49661 143.35301 L 144.49661 27.641207 L 24.019206 27.641207 z M 84.162821 41.070361 A 43.854713 43.854713 0 0 1 128.01751 84.925049 A 43.854713 43.854713 0 0 1 84.162821 128.77974 A 43.854713 43.854713 0 0 1 40.308134 84.925049 A 43.854713 43.854713 0 0 1 84.162821 41.070361 z " /><g
       id="circle999"><path
         style="color:#000000;fill:#fffffc;fill-opacity:0;stroke-width:3.46262;stroke-linecap:round;stroke-linejoin:round;-inkscape-stroke:none"
         d="M 128.01743,84.925224 A 43.854713,43.854713 0 0 1 84.162712,128.77994 43.854713,43.854713 0 0 1 40.307999,84.925224 43.854713,43.854713 0 0 1 84.162712,41.070511 43.854713,43.854713 0 0 1 128.01743,84.925224 Z"
         id="path5020" /><path
         style="color:#000000;fill:#ffffff;stroke-linecap:round;stroke-linejoin:round;-inkscape-stroke:none"
         d="m 84.162109,39.339844 c -25.155933,0 -45.585937,20.430004 -45.585937,45.585937 0,25.155929 20.430004,45.585939 45.585937,45.585939 25.155931,0 45.585941,-20.43001 45.585941,-45.585939 0,-25.155933 -20.43001,-45.585937 -45.585941,-45.585937 z m 0,3.46289 c 23.284601,0 42.123051,18.83845 42.123051,42.123047 0,23.284599 -18.83845,42.123049 -42.123051,42.123049 -23.284596,0 -42.123046,-18.83845 -42.123047,-42.123049 0,-23.284597 18.838451,-42.123047 42.123047,-42.123047 z"
         id="path5022" /></g></g></svg>
