<?xml version="1.0" encoding="UTF-8" standalone="no"?>
<!-- Created with Inkscape (http://www.inkscape.org/) -->

<svg
   width="8.5in"
   height="11in"
   viewBox="0 0 215.9 279.4"
   version="1.1"
   id="svg5"
   inkscape:version="1.2.1 (9c6d41e4, 2022-07-14)"
   sodipodi:docname="SoccerBallPathOptimized.svg"
   xml:space="preserve"
   xmlns:inkscape="http://www.inkscape.org/namespaces/inkscape"
   xmlns:sodipodi="http://sodipodi.sourceforge.net/DTD/sodipodi-0.dtd"
   xmlns="http://www.w3.org/2000/svg"
   xmlns:svg="http://www.w3.org/2000/svg"><sodipodi:namedview
     id="namedview7"
     pagecolor="#ffffff"
     bordercolor="#000000"
     borderopacity="0.25"
     inkscape:showpageshadow="2"
     inkscape:pageopacity="0.0"
     inkscape:pagecheckerboard="0"
     inkscape:deskcolor="#d1d1d1"
     inkscape:document-units="mm"
     showgrid="false"
     inkscape:zoom="1.3879489"
     inkscape:cx="225.51263"
     inkscape:cy="321.33748"
     inkscape:window-width="1920"
     inkscape:window-height="1080"
     inkscape:window-x="0"
     inkscape:window-y="0"
     inkscape:window-maximized="0"
     inkscape:current-layer="layer1" /><defs
     id="defs2" /><g
     inkscape:label="Layer 1"
     inkscape:groupmode="layer"
     id="layer1"><circle
       style="font-variation-settings:'wght' 800;fill:#000000;fill-opacity:1;stroke:#080000;stroke-width:0.370456;stroke-linecap:round;stroke-linejoin:round;stroke-dasharray:none;stroke-opacity:1;stop-color:#000000"
       id="path351"
       cx="85.211174"
       cy="85.401802"
       r="44.679966" /><path
       sodipodi:type="star"
       style="font-variation-settings:'wght' 800;fill:#ffffff;fill-opacity:0.98039216;stroke:#080000;stroke-width:3.52777778;stroke-linecap:round;stroke-linejoin:round;stop-color:#000000;stroke-opacity:1;stroke-dasharray:none"
       id="path965"
       inkscape:flatsided="true"
       sodipodi:sides="6"
       sodipodi:cx="87.308083"
       sodipodi:cy="85.020538"
       sodipodi:r1="16.220278"
       sodipodi:r2="15.377275"
       sodipodi:arg1="2.087027"
       sodipodi:arg2="2.6106258"
       inkscape:rounded="-3.469447e-18"
       inkscape:randomized="0"
       d="M 79.301664,99.127085 71.088245,85.14005 79.094664,71.033503 95.314501,70.913991 103.52792,84.901027 95.521501,99.007574 Z"
       inkscape:transform-center-x="1.0999444e-06"
       inkscape:transform-center-y="-1.0711249e-06"
       transform="translate(-3.2406932)" /><path
       sodipodi:type="star"
       style="font-variation-settings:'wght' 800;fill:#ffffff;fill-opacity:0.98039216;stroke:#080000;stroke-width:3.99097794;stroke-linecap:round;stroke-linejoin:round;stop-color:#000000;stroke-opacity:1;stroke-dasharray:none"
       id="path971"
       inkscape:flatsided="true"
       sodipodi:sides="6"
       sodipodi:cx="87.308083"
       sodipodi:cy="85.020538"
       sodipodi:r1="16.220278"
       sodipodi:r2="15.377275"
       sodipodi:arg1="2.087027"
       sodipodi:arg2="2.6106258"
       inkscape:rounded="-3.469447e-18"
       inkscape:randomized="0"
       d="M 79.301664,99.127085 71.088245,85.14005 79.094664,71.033503 95.314501,70.913991 103.52792,84.901027 95.521501,99.007574 Z"
       transform="matrix(1.0005903,0,0,0.78088575,-3.4270256,-6.4426714)" /><path
       sodipodi:type="star"
       style="font-variation-settings:'wght' 800;fill:#ffffff;fill-opacity:0.98039216;stroke:#080000;stroke-width:3.99097792;stroke-linecap:round;stroke-linejoin:round;stop-color:#000000;stroke-opacity:1;stroke-dasharray:none"
       id="path973"
       inkscape:flatsided="true"
       sodipodi:sides="6"
       sodipodi:cx="87.308083"
       sodipodi:cy="85.020538"
       sodipodi:r1="16.220278"
       sodipodi:r2="15.377275"
       sodipodi:arg1="2.087027"
       sodipodi:arg2="2.6106258"
       inkscape:rounded="-3.469447e-18"
       inkscape:randomized="0"
       d="M 79.301664,99.127085 71.088245,85.14005 79.094664,71.033503 95.314501,70.913991 103.52792,84.901027 95.521501,99.007574 Z"
       transform="matrix(-0.5088147,0.8615617,-0.67238434,-0.39709175,207.35951,56.096133)" /><path
       sodipodi:type="star"
       style="font-variation-settings:'wght' 800;fill:#ffffff;fill-opacity:0.98039216;stroke:#080000;stroke-width:3.99097792;stroke-linecap:round;stroke-linejoin:round;stop-color:#000000;stroke-opacity:1;stroke-dasharray:none"
       id="path975"
       inkscape:flatsided="true"
       sodipodi:sides="6"
       sodipodi:cx="87.308083"
       sodipodi:cy="85.020538"
       sodipodi:r1="16.220278"
       sodipodi:r2="15.377275"
       sodipodi:arg1="2.087027"
       sodipodi:arg2="2.6106258"
       inkscape:rounded="-3.469447e-18"
       inkscape:randomized="0"
       d="M 79.301664,99.127085 71.088245,85.14005 79.094664,71.033503 95.314501,70.913991 103.52792,84.901027 95.521501,99.007574 Z"
       transform="matrix(0.5088147,0.8615617,0.67238434,-0.39709175,-39.224732,56.230928)" /><g
       id="path979"
       transform="matrix(0.83043863,0.67469658,-0.48750629,0.28735692,39.545854,37.807909)"><path
         style="color:#000000;fill:#ffffff;fill-opacity:0.980392;stroke-width:4.68273;stroke-linecap:round;stroke-linejoin:round;-inkscape-stroke:none"
         d="M 79.301664,99.127085 71.088245,85.14005 79.094664,71.033503 95.314501,70.913991 103.52792,84.901027 95.521501,99.007574 Z"
         id="path314" /><path
         style="color:#000000;fill:#080000;stroke-linecap:round;stroke-linejoin:round;-inkscape-stroke:none"
         d="m 95.296875,68.572266 -16.21875,0.11914 a 2.3415971,2.3415971 0 0 0 -2.019531,1.185547 l -8.00586,14.107422 a 2.3415971,2.3415971 0 0 0 0.01563,2.341797 l 8.214844,13.986328 a 2.3415971,2.3415971 0 0 0 2.035156,1.15625 l 16.220703,-0.11914 a 2.3415971,2.3415971 0 0 0 2.019532,-1.18555 l 8.005856,-14.107419 a 2.3415971,2.3415971 0 0 0 -0.0176,-2.341797 L 97.333984,69.728516 a 2.3415971,2.3415971 0 0 0 -2.037109,-1.15625 z m -1.316406,4.693359 6.843751,11.65625 -6.671876,11.753906 -13.517578,0.09961 -6.84375,-11.654297 6.671875,-11.75586 z"
         id="path316" /></g><g
       id="path981"
       transform="matrix(-0.81393647,0.67473632,0.47781875,0.28737385,128.00478,37.802999)"><path
         style="color:#000000;fill:#ffffff;fill-opacity:0.980392;stroke-width:4.72982;stroke-linecap:round;stroke-linejoin:round;-inkscape-stroke:none"
         d="M 79.301664,99.127085 71.088245,85.14005 79.094664,71.033503 95.314501,70.913991 103.52792,84.901027 95.521501,99.007574 Z"
         id="path308" /><path
         style="color:#000000;fill:#080000;stroke-linecap:round;stroke-linejoin:round;-inkscape-stroke:none"
         d="m 95.296875,68.548828 -16.21875,0.119141 a 2.3651457,2.3651457 0 0 0 -2.041016,1.197265 L 69.03125,83.972656 a 2.3651457,2.3651457 0 0 0 0.01758,2.365235 l 8.212891,13.986329 a 2.3651457,2.3651457 0 0 0 2.05664,1.16797 l 16.220703,-0.11914 a 2.3651457,2.3651457 0 0 0 2.039063,-1.19727 l 8.005855,-14.107421 a 2.3651457,2.3651457 0 0 0 -0.0176,-2.365234 L 97.353516,69.716797 a 2.3651457,2.3651457 0 0 0 -2.056641,-1.167969 z m -1.330078,4.740234 6.830083,11.632813 -6.658208,11.730469 -13.488281,0.09961 -6.832032,-11.632812 6.658203,-11.730469 z"
         id="path310" /></g><path
       sodipodi:type="star"
       style="font-variation-settings:'wght' 800;fill:#ffffff;fill-opacity:0.97966093;stroke:#080000;stroke-width:4.68272589;stroke-linecap:round;stroke-linejoin:round;stop-color:#000000;stroke-opacity:1;stroke-dasharray:none"
       id="path991"
       inkscape:flatsided="true"
       sodipodi:sides="6"
       sodipodi:cx="87.308083"
       sodipodi:cy="85.020538"
       sodipodi:r1="16.220278"
       sodipodi:r2="15.377275"
       sodipodi:arg1="2.087027"
       sodipodi:arg2="2.6106258"
       inkscape:rounded="-3.469447e-18"
       inkscape:randomized="0"
       d="M 79.301664,99.127085 71.088245,85.14005 79.094664,71.033503 95.314501,70.913991 103.52792,84.901027 95.521501,99.007574 Z"
       transform="matrix(-0.99693306,0.38854627,-0.00891087,-0.56582416,146.71922,69.473053)" /><path
       sodipodi:type="star"
       style="font-variation-settings:'wght' 800;fill:#ffffff;fill-opacity:0.98039216;stroke:#080000;stroke-width:4.72981817;stroke-linecap:round;stroke-linejoin:round;stop-color:#000000;stroke-opacity:1;stroke-dasharray:none"
       id="path993"
       inkscape:flatsided="true"
       sodipodi:sides="6"
       sodipodi:cx="87.308083"
       sodipodi:cy="85.020538"
       sodipodi:r1="16.220278"
       sodipodi:r2="15.377275"
       sodipodi:arg1="2.087027"
       sodipodi:arg2="2.6106258"
       inkscape:rounded="-3.469447e-18"
       inkscape:randomized="0"
       d="M 79.301664,99.127085 71.088245,85.14005 79.094664,71.033503 95.314501,70.913991 103.52792,84.901027 95.521501,99.007574 Z"
       transform="matrix(-0.1843762,-1.0410414,-0.48595475,0.27339069,103.01025,146.37889)" /><path
       sodipodi:type="star"
       style="font-variation-settings:'wght' 800;fill:#ffffff;fill-opacity:0.98039216;stroke:#080000;stroke-width:4.68272592;stroke-linecap:round;stroke-linejoin:round;stop-color:#000000;stroke-opacity:1;stroke-dasharray:none"
       id="path995"
       inkscape:flatsided="true"
       sodipodi:sides="6"
       sodipodi:cx="87.308083"
       sodipodi:cy="85.020538"
       sodipodi:r1="16.220278"
       sodipodi:r2="15.377275"
       sodipodi:arg1="2.087027"
       sodipodi:arg2="2.6106258"
       inkscape:rounded="-3.469447e-18"
       inkscape:randomized="0"
       d="M 79.301664,99.127085 71.088245,85.14005 79.094664,71.033503 95.314501,70.913991 103.52792,84.901027 95.521501,99.007574 Z"
       transform="matrix(1.000489,0.37929601,0.00366983,-0.56588242,20.961171,70.041803)" /><path
       sodipodi:type="star"
       style="font-variation-settings:'wght' 800;fill:#ffffff;fill-opacity:0.98039216;stroke:#080000;stroke-width:4.72981825;stroke-linecap:round;stroke-linejoin:round;stop-color:#000000;stroke-opacity:1;stroke-dasharray:none"
       id="path997"
       inkscape:flatsided="true"
       sodipodi:sides="6"
       sodipodi:cx="87.308083"
       sodipodi:cy="85.020538"
       sodipodi:r1="16.220278"
       sodipodi:r2="15.377275"
       sodipodi:arg1="2.087027"
       sodipodi:arg2="2.6106258"
       inkscape:rounded="-3.469447e-18"
       inkscape:randomized="0"
       d="M 79.301664,99.127085 71.088245,85.14005 79.094664,71.033503 95.314501,70.913991 103.52792,84.901027 95.521501,99.007574 Z"
       transform="matrix(0.17472617,-1.0427044,0.48846605,0.26887805,65.380567,146.53951)" /><path
       style="font-variation-settings:'wght' 800;fill:#ffffff;fill-opacity:0.98644066;stroke:#fffffc;stroke-width:3.52777;stroke-linecap:round;stroke-linejoin:round;stroke-dasharray:none;stroke-opacity:1;stop-color:#000000"
       d="m 36.60077,100.84275 3.812579,-10.67523 0.19063,-17.537867 9.340821,-15.63158 18.300385,-13.53466 13.153403,-4.765725 -29.35687,-0.381257 c 0,0 -24.209883,28.022463 -23.828626,29.928754 0.381259,1.906291 8.387678,32.597565 8.387678,32.597565 z"
       id="path1055" /><path
       style="font-variation-settings:'wght' 800;fill:#ffffff;fill-opacity:0.986441;stroke:#fffffc;stroke-width:3.52777;stroke-linecap:round;stroke-linejoin:round;stroke-dasharray:none;stroke-opacity:1;stop-color:#000000"
       d="m 102.55841,40.22272 2.09691,5.718871 12.77215,9.912709 7.43453,13.34403 3.62195,14.487806 -0.95314,8.578305 -4.76573,14.869059 -11.24711,12.58152 -12.009627,6.67201 -12.200257,2.47818 -13.34403,-0.95315 -12.772144,-5.14698 -7.243903,-3.81258 6.290757,11.43774 28.784981,8.00642 c 0,0 14.106543,-2.85944 16.203463,-3.05006 2.09692,-0.19063 29.5475,-31.26316 29.5475,-31.26316 0,0 3.24069,-27.450577 3.62195,-28.403723 0.38126,-0.953145 -14.86906,-35.075738 -14.86906,-35.075738 z"
       id="path1435" /><path
       id="rect1491"
       style="font-variation-settings:'wght' 800;fill:#000006;fill-opacity:1;stroke:none;stroke-width:3.52777;stroke-linecap:round;stroke-linejoin:round;stroke-dasharray:none;stroke-opacity:1;stop-color:#000000"
       d="M 24.019206 27.641207 L 24.019206 143.35301 L 144.49661 143.35301 L 144.49661 27.641207 L 24.019206 27.641207 z M 84.162821 41.070361 A 43.854713 43.854713 0 0 1 128.01751 84.925049 A 43.854713 43.854713 0 0 1 84.162821 128.77974 A 43.854713 43.854713 0 0 1 40.308134 84.925049 A 43.854713 43.854713 0 0 1 84.162821 41.070361 z " /><circle
       style="font-variation-settings:'wght' 800;fill:#fffffc;fill-opacity:0;stroke:#ffffff;stroke-width:3.46262;stroke-linecap:round;stroke-linejoin:round;stroke-dasharray:none;stroke-opacity:1;stop-color:#000000"
       id="circle999"
       cx="84.162712"
       cy="84.925224"
       r="43.854713" /></g></svg>
